<?xml version="1.0" encoding="iso-8859-1"?>
<!-- Generator: Adobe Illustrator 19.0.0, SVG Export Plug-In . SVG Version: 6.00 Build 0)  -->
<svg version="1.1" id="Capa_1" xmlns="http://www.w3.org/2000/svg" xmlns:xlink="http://www.w3.org/1999/xlink" x="0px" y="0px"
	 viewBox="0 0 512 512" style="enable-background:new 0 0 512 512;" xml:space="preserve">
<g>
	<g>
		<path d="M256,166c-49.629,0-90,40.371-90,90c0,49.629,40.371,90,90,90c49.629,0,90-40.371,90-90C346,206.371,305.629,166,256,166z
			"/>
	</g>
</g>
<g>
	<g>
		<path d="M111.5,90.289C116.768,81.367,120,71.094,120,60c0-33.091-26.909-60-60-60S0,26.909,0,60s26.909,60,60,60
			c11.094,0,21.367-3.232,30.289-8.5l71.307,71.307c6.174-7.945,13.266-15.037,21.211-21.211L111.5,90.289z"/>
	</g>
</g>
<g>
	<g>
		<path d="M421,31c-33.091,0-60,26.909-60,60c0,11.094,3.232,21.367,8.5,30.289l-40.307,40.307
			c7.945,6.174,15.037,13.266,21.211,21.211l40.307-40.307c8.922,5.268,19.195,8.5,30.289,8.5c33.091,0,60-26.909,60-60
			S454.091,31,421,31z"/>
	</g>
</g>
<g>
	<g>
		<path d="M137.216,268.018l-24.264,5.367C102.92,254.235,83.08,241,60,241c-33.091,0-60,26.909-60,60s26.909,60,60,60
			c32.547,0,58.976-26.071,59.839-58.412l23.936-5.29C140.347,288.02,138.249,278.206,137.216,268.018z"/>
	</g>
</g>
<g>
	<g>
		<path d="M452,271c-20.839,0-39.192,10.693-49.951,26.862l-30.348-11.739c-2.574,9.855-6.418,19.107-11.268,27.808l32.038,12.415
			C392.348,327.909,392,329.407,392,331c0,33.091,26.909,60,60,60s60-26.909,60-60S485.091,271,452,271z"/>
	</g>
</g>
<g>
	<g>
		<path d="M271,394.13v-19.646c-4.968,0.63-9.864,1.516-15,1.516s-10.032-0.886-15-1.516v19.646c-25.807,6.707-45,29.989-45,57.87
			c0,33.091,26.909,60,60,60s60-26.909,60-60C316,424.119,296.807,400.837,271,394.13z"/>
	</g>
</g>
<g>
</g>
<g>
</g>
<g>
</g>
<g>
</g>
<g>
</g>
<g>
</g>
<g>
</g>
<g>
</g>
<g>
</g>
<g>
</g>
<g>
</g>
<g>
</g>
<g>
</g>
<g>
</g>
<g>
</g>
</svg>
