<?xml version="1.0" encoding="utf-8"?>
<!-- Generator: Adobe Illustrator 21.1.0, SVG Export Plug-In . SVG Version: 6.00 Build 0)  -->
<svg version="1.1" id="Layer_1" xmlns="http://www.w3.org/2000/svg" xmlns:xlink="http://www.w3.org/1999/xlink" x="0px" y="0px"
	 viewBox="0 0 1000 1000" style="enable-background:new 0 0 1000 1000;" xml:space="preserve">
<style type="text/css">
	.st0{fill:#333333;}
</style>
<g>
	<path class="st0" d="M574.9,19.2c232.2-0.9,392.9,148.1,412,336.6c21.3,209.9-121.6,382.8-315.4,414.7
		c-84.8,13.9-165.8,0-241.3-41.5c-13.9-7.6-22.3-6.7-33.9,4.9c-78,78.3-156.2,156.4-235.7,233.1c-43.5,42-108.4,29.2-135.9-24.6
		c-14.5-28.3-9.8-67.6,13.4-92.1c36.2-38.3,73.4-75.7,110.5-113.1c42-42.4,83.9-84.9,126.7-126.6c10.5-10.2,11.6-17.8,4.8-30.8
		c-62.5-119.9-66.7-241.7-1.8-361C349.6,87.8,463.7,23.5,574.9,19.2z M609.3,666.1c144.8,1.1,266.8-118.5,271.8-258.9
		c5.3-148.9-119.3-280.5-268.3-280.2c-148.8,0.3-267.5,118.5-271.3,267.1C337.8,539,465.2,669.8,609.3,666.1z"/>
	<path class="st0" d="M611,344.4c36.8,0,73.6-0.4,110.3,0.1c29,0.4,49.3,20,51,48c1.8,30.8-15.9,55.6-46.1,56.3
		c-76.7,1.7-153.4,1.7-230.1,0.1c-29.2-0.6-48.7-27.1-46.7-56.2c1.9-28,23.4-48.1,53.1-48.5c36.1-0.4,72.3-0.1,108.4-0.1
		C611,344.2,611,344.3,611,344.4z"/>
</g>
</svg>
