<svg xmlns="http://www.w3.org/2000/svg" width="40" height="28.76" viewBox="0 0 40 28.76">
  <g id="Group_7" data-name="Group 7" transform="translate(-30.312 -197.777)">
    <path id="Path_28" data-name="Path 28" d="M273.277,201.3l1.08,1.517.815,1.171c.276.387,1.053-.049,1.3-.443l-.3-.625a3.455,3.455,0,0,0,1.386-1.335c.5.076.91.171,1.468.268-.52-.726-1.427-3.84-3.507-4.053a2.211,2.211,0,0,0-2.748,2.121,2.113,2.113,0,0,0,.3,1.086,2.054,2.054,0,0,0,.208.293m2.8-.813.64.556.272.237a3.289,3.289,0,0,1-1.134,1.07l-.232-.419-.46-.833Z" transform="translate(-224.872)" fill="#303132"/>
    <path id="Path_29" data-name="Path 29" d="M168.433,256.8s.01.007.029.018.058.033.089.049l5.017,2.759.759,7.2a.784.784,0,0,0,.784.784c.487,0,.769-.411.769-.932l.131-7.83a1.262,1.262,0,0,0-.646-1.1l-4.181-2.634a5.114,5.114,0,0,1,3.3-2.4l.391,2.526a1.1,1.1,0,0,0,.407.761l0,0a.906.906,0,0,0,.087.05l3.552,2.061a1.05,1.05,0,1,0,.78-1.01s-3-1.864-3-1.864a.934.934,0,0,0,0-.094L176.489,251a2.176,2.176,0,0,0-2-2.09,1.867,1.867,0,0,0-1.408.639l-4.846,5.04a1.391,1.391,0,0,0,.2,2.2" transform="translate(-127.499 -47.425)" fill="#303132"/>
    <path id="Path_30" data-name="Path 30" d="M352.014,318l.67,2.45a5.636,5.636,0,0,1,2.7-.11,26.252,26.252,0,0,0-2.028-5.671c-.519-.973-.987-.52-.686.49.491,1.644.191,2.362-.653,2.841" transform="translate(-298.365 -107.917)" fill="#303132"/>
    <path id="Path_31" data-name="Path 31" d="M405.99,479.551c-1.243,1.011-2.291,1.682-3.361,1.534a18.169,18.169,0,0,0-4.464.123l-.732-1.685.346-.15-1.064-2.448-.114-.263-1.127-2.591a.817.817,0,0,0-1.5.648l.834,1.918.323.744,1.15,2.643.345-.15.634,1.46c-2.056.311-3.926.75-4.722.939-.175.042-.172.075.009.075h9.731c1.564,0,3.237-1.513,3.833-2.7.081-.161.017-.206-.123-.092" transform="translate(-335.837 -255.811)" fill="#303132"/>
    <path id="Path_32" data-name="Path 32" d="M296.064,419.086l-.161-.334h.016l-.771-1.772a1.128,1.128,0,0,1,0-.878,1.146,1.146,0,0,1,2.1-.036l1.18,2.714c1.225-.081,3.174-.538,3.174-1.682,0-1.769-5.374-3.915-7.016-4.545a9.435,9.435,0,0,1-.265-1.359,20.138,20.138,0,0,0-2.061.355l-1.083-.048q-.821-.1-1.528-.141a16.467,16.467,0,0,0-3.4.121l-.016.978h0l-.005.407-.016.961,0,0-.005.4,0,0-.023,1.411,5.028.136-1.338,1.639h0l-.1.129-.107.131h0l-.218.276-.009,0-.873,1.069a2,2,0,0,1,.72.635,13.651,13.651,0,0,0,7.011-.063l-.22-.507" transform="translate(-237.306 -197.94)" fill="#303132"/>
    <path id="Path_33" data-name="Path 33" d="M51.381,474.062a2.224,2.224,0,0,0-.641-.344l1.278-1.565,1.217-1.491-4.359-.118c-.021,1.275.073,2.66-1.248,2.631a1.252,1.252,0,0,1-1.241-1.214l-.157-1.489-.148,0-15.772-.427a69.205,69.205,0,0,1,8.988,3.182l-4.976,2.024a1.97,1.97,0,0,0-1.179,2.237,1.935,1.935,0,0,0,2,1.57h8.882c1.677,0,4.991-.424,6.773-2.014.954-.85,1.31-1.637,1.059-2.339a1.44,1.44,0,0,0-.477-.64" transform="translate(0 -252.517)" fill="#303132"/>
    <path id="Path_34" data-name="Path 34" d="M83.761,409.3l-1.707,1.36c2.578.758,5.155,1.632,8.276.961l.356-.345.351.111c.856.266,1.626.485,2.183.6a3.551,3.551,0,0,0,.655.09,1.238,1.238,0,0,0,.3-.041l-.348-3.3a8.75,8.75,0,0,1-1.843.208c-2.874,0-4.213-1.306-8.556-1.437.2.494.357,1.007.569,1.467l.06.022-.193.344-.1-.036" transform="translate(-47.987 -194.509)" fill="#303132"/>
  </g>
</svg>
