<svg id="Component_3_1" data-name="Component 3 – 1" xmlns="http://www.w3.org/2000/svg" width="63.793" height="45.868" viewBox="0 0 63.793 45.868">
  <path id="Path_28" data-name="Path 28" d="M273.578,203.392l1.722,2.419,1.3,1.867c.44.617,1.678-.079,2.066-.706l-.471-1a5.507,5.507,0,0,0,2.21-2.128c.8.121,1.451.273,2.341.427-.828-1.158-2.275-6.121-5.591-6.461-3.222-.34-4.381,1.818-4.381,3.382a3.368,3.368,0,0,0,.474,1.731,3.275,3.275,0,0,0,.332.466m4.468-1.3,1.02.886.433.377a5.244,5.244,0,0,1-1.808,1.7l-.369-.668-.733-1.329Z" transform="translate(-244.72 -197.777)" fill="currentColor"/>
  <path id="Path_29" data-name="Path 29" d="M168.82,261.48s.016.011.046.028c.046.027.093.053.141.078l8,4.4,1.21,11.472a1.25,1.25,0,0,0,1.249,1.25c.776,0,1.226-.655,1.226-1.486l.208-12.481a2.012,2.012,0,0,0-1.03-1.756s-6.664-4.2-6.664-4.2a8.152,8.152,0,0,1,5.267-3.832l.623,4.026a1.747,1.747,0,0,0,.648,1.212l.006,0a1.433,1.433,0,0,0,.138.08l5.662,3.285a1.674,1.674,0,1,0,1.244-1.61s-4.784-2.971-4.784-2.971a1.491,1.491,0,0,0-.008-.15l-.339-6.582c0-.8-.8-3.332-3.193-3.332a2.976,2.976,0,0,0-2.245,1.019s-7.725,8.034-7.725,8.034a2.218,2.218,0,0,0,.32,3.514" transform="translate(-151.876 -242.997)" fill="currentColor"/>
  <path id="Path_30" data-name="Path 30" d="M352.014,320.3l1.067,3.906a8.982,8.982,0,0,1,4.3-.176,41.849,41.849,0,0,0-3.233-9.04c-.827-1.551-1.574-.829-1.093.781.782,2.621.3,3.765-1.041,4.529" transform="translate(-314.794 -300.672)" fill="currentColor"/>
  <path id="Path_31" data-name="Path 31" d="M414.057,483.091c-1.982,1.611-3.652,2.681-5.358,2.446a28.962,28.962,0,0,0-7.116.2l-1.167-2.686.552-.24-1.7-3.9-.182-.419-1.8-4.131a1.3,1.3,0,0,0-2.39,1.033s.608,1.4,1.33,3.058l.516,1.186,1.832,4.213.551-.239,1.011,2.327c-3.278.5-6.259,1.2-7.527,1.5-.28.066-.273.12.014.12h15.513c2.492,0,5.161-2.412,6.11-4.312.128-.257.027-.328-.2-.147" transform="translate(-350.517 -441.681)" fill="currentColor"/>
  <path id="Path_32" data-name="Path 32" d="M301.94,423.774l-.257-.533.026,0-1.229-2.825a1.8,1.8,0,0,1-.005-1.4,1.826,1.826,0,0,1,3.347-.058l1.881,4.327c1.952-.128,5.059-.858,5.059-2.681,0-2.82-8.567-6.241-11.184-7.245a15.042,15.042,0,0,1-.422-2.166,32.115,32.115,0,0,0-3.285.566l-1.727-.076q-1.308-.158-2.435-.224a26.246,26.246,0,0,0-5.424.193l-.026,1.56h0l-.009.648-.026,1.531.005,0-.009.641-.008.005-.037,2.249,8.014.217-2.133,2.613h0l-.162.205-.171.21h0l-.347.44-.014,0-1.392,1.7a3.185,3.185,0,0,1,1.147,1.013,21.76,21.76,0,0,0,11.176-.1l-.351-.808" transform="translate(-256.571 -386.504)" fill="currentColor"/>
  <path id="Path_33" data-name="Path 33" d="M63.9,476.45a3.547,3.547,0,0,0-1.021-.549l2.038-2.494,1.94-2.377-6.949-.188c-.034,2.033.116,4.24-1.989,4.195A2,2,0,0,1,55.94,473.1l-.25-2.373-.236-.006-25.141-.681a110.323,110.323,0,0,1,14.327,5.073l-7.932,3.227a3.14,3.14,0,0,0-1.88,3.565,3.084,3.084,0,0,0,3.19,2.5H52.176c2.674,0,7.956-.676,10.8-3.21,1.521-1.355,2.089-2.61,1.688-3.728a2.3,2.3,0,0,0-.761-1.02" transform="translate(-30.312 -438.541)" fill="currentColor"/>
  <path id="Path_34" data-name="Path 34" d="M84.774,410.363l-2.72,2.168c4.109,1.208,8.217,2.6,13.193,1.532l.568-.551.559.176c1.364.425,2.592.772,3.479.956a5.661,5.661,0,0,0,1.044.143,1.972,1.972,0,0,0,.473-.065l-.555-5.264a13.946,13.946,0,0,1-2.937.331c-4.581,0-6.715-2.082-13.639-2.291.315.788.569,1.606.908,2.339l.1.035-.308.548-.162-.058" transform="translate(-76.068 -383.235)" fill="currentColor"/>
</svg>
